PathFileType	4	(X/Y/Z)	C:\Users\Basilio\Documents\Thesis Gigler\squatting_fais\c3dfiles\076\SLS_front_pre5\markers_experimental.trc
DataRate	CameraRate	NumFrames	NumMarkers	Units	OrigDataRate	OrigDataStartFrame	OrigNumFrames
200.000000	200.000000	4	61	mm	200.000000	891	1782
Frame#	Time	FHD			LBHD			RBHD			C7			T10			CLAV			LSHO			LUUPA			LMUPA			LDUPA			LLEP			LMEP			LRAD			LUL			LRFIN			RSHO			RUPA1			RMUPA			RDUPA			RLEP			RMEP			RRAD			RUL			RUFIN			LASI			RASI			USACR			LSACR			RSACR			LTHI1			LTHI2			LTHI3			LTHI4			LLFC			LMFC			LTIB1			LTIB2			LTIB3			LTIB4			LLMAL			LMMAL			LHEE			LMT1			LMT2			LMT5			RTHI			RTHI2			RTHI3			RTHI4			RLFC			RMFC			RTIB1			RTIB2			RTIB3			RTIB4			RLMAL			RMMAL			RHEE			RMT1			RMT2			RMT5			
		X1	Y1	Z1	X2	Y2	Z2	X3	Y3	Z3	X4	Y4	Z4	X5	Y5	Z5	X6	Y6	Z6	X7	Y7	Z7	X8	Y8	Z8	X9	Y9	Z9	X10	Y10	Z10	X11	Y11	Z11	X12	Y12	Z12	X13	Y13	Z13	X14	Y14	Z14	X15	Y15	Z15	X16	Y16	Z16	X17	Y17	Z17	X18	Y18	Z18	X19	Y19	Z19	X20	Y20	Z20	X21	Y21	Z21	X22	Y22	Z22	X23	Y23	Z23	X24	Y24	Z24	X25	Y25	Z25	X26	Y26	Z26	X27	Y27	Z27	X28	Y28	Z28	X29	Y29	Z29	X30	Y30	Z30	X31	Y31	Z31	X32	Y32	Z32	X33	Y33	Z33	X34	Y34	Z34	X35	Y35	Z35	X36	Y36	Z36	X37	Y37	Z37	X38	Y38	Z38	X39	Y39	Z39	X40	Y40	Z40	X41	Y41	Z41	X42	Y42	Z42	X43	Y43	Z43	X44	Y44	Z44	X45	Y45	Z45	X46	Y46	Z46	X47	Y47	Z47	X48	Y48	Z48	X49	Y49	Z49	X50	Y50	Z50	X51	Y51	Z51	X52	Y52	Z52	X53	Y53	Z53	X54	Y54	Z54	X55	Y55	Z55	X56	Y56	Z56	X57	Y57	Z57	X58	Y58	Z58	X59	Y59	Z59	X60	Y60	Z60	X61	Y61	Z61	

892	4.455	-250.566635131836	1436.585571289063	-1027.19677734375	-386.9156188964845	1368.737182617188	-1129.514038085938	-378.1003723144532	1370.691528320313	-977.2038574218752	-437.9008789062501	1253.681518554688	-1046.609252929688	-527.1226196289064	955.7187500000002	-1040.65478515625	-314.6918640136719	1169.613403320313	-1053.82421875	-368.4676208496094	1199.783447265625	-1211.502075195313	-227.7201843261719	1154.80615234375	-1293.651245117188	-192.575180053711	1171.525512695313	-1261.89599609375	-161.3556060791016	1149.231201171875	-1309.386840820313	-111.3612670898438	1131.16064453125	-1322.962768554688	-101.4827270507813	1069.8505859375	-1272.69775390625	136.0177154541016	1164.203735351563	-1275.052612304688	132.5137786865235	1165.0166015625	-1340.199340820313	218.2220306396485	1183.764526367188	-1278.676513671875	-350.4778747558594	1199.032592773438	-896.9958496093752	-216.5159912109376	1137.144775390625	-810.0710449218752	-185.2927856445313	1169.284545898438	-830.189147949219	-146.9900665283203	1128.266967773438	-805.3728027343752	-79.7404022216797	1130.703491210938	-808.585876464844	-77.29360961914064	1082.354614257813	-866.8444824218752	163.8877868652344	1140.970458984375	-861.1978149414065	155.9336090087891	1138.611938476563	-795.495788574219	238.1948699951172	1159.850952148438	-850.5137939453127	-387.055633544922	774.750915527344	-1141.18701171875	-391.5343627929689	781.3151855468752	-925.2214965820315	-554.3198852539064	839.7437744140627	-1033.254150390625	-562.0366821289064	810.5341796875002	-1062.564819335938	-564.9129638671876	808.2332763671877	-1005.774658203125	-389.7564697265626	637.3610839843751	-1212.094848632813	-313.0401000976563	602.0917358398439	-1209.568359375	-278.8278198242188	634.0818481445314	-1191.424926757813	-297.8933715820313	543.1179199218751	-1198.814819335938	-197.1591796875001	426.653533935547	-1164.481079101563	-182.6812744140625	442.9640197753907	-1052.1494140625	-208.0204772949219	301.1684265136719	-1064.131713867188	-248.224594116211	245.2586517333985	-1121.036376953125	-222.4971313476563	246.7127838134766	-1079.989379882813	-273.9248352050782	196.6006774902344	-1037.697387695313	-377.8198852539063	104.5316009521485	-1075.819458007813	-348.1835632324219	121.8124084472657	-995.9083251953127	-440.8489685058595	95.84371185302736	-1025.046752929688	-239.0943145751954	53.21256256103517	-1004.877624511719	-233.5379028320313	48.9462242126465	-1043.704223632813	-257.7129211425782	42.82519912719727	-1093.6416015625	-310.8095092773438	589.2459106445314	-862.7292480468752	-244.6155700683594	590.6114501953126	-872.067810058594	-229.8656463623047	619.3885498046876	-884.345397949219	-195.707748413086	524.7300415039064	-889.9624023437502	-149.0730133056641	490.0878295898439	-897.328308105469	-137.1700592041016	502.8782958984376	-1013.614379882813	-16.87491416931153	442.1243591308595	-921.2236328125002	8.162794113159181	339.5075073242188	-892.7368164062502	36.37243270874024	374.2116699218751	-906.7656250000002	79.35977172851564	357.4041137695313	-941.6976318359377	161.9296875	223.9409484863282	-908.7984008789065	154.8412628173828	248.8558502197266	-988.8090820312502	155.6171417236328	160.2744750976563	-947.9817504882815	272.3294982910157	323.5487670898438	-982.4426269531252	270.7339172363282	337.8269653320313	-940.1781005859377	274.3872375488282	308.6643981933594	-885.2129516601565	
893	4.46	-250.7544860839844	1436.126220703125	-1027.233154296875	-387.5749816894532	1367.799072265625	-1129.399658203125	-378.1930541992188	1370.092041015625	-977.291687011719	-437.9645996093751	1252.9033203125	-1046.674194335938	-527.0414428710939	955.096130371094	-1040.627563476563	-314.6403198242188	1169.106689453125	-1053.764770507813	-368.4627380371094	1199.10498046875	-1211.47998046875	-227.5021057128907	1154.097900390625	-1293.6005859375	-192.7273712158204	1170.996948242188	-1261.881225585938	-161.382308959961	1148.890869140625	-1309.400146484375	-110.4501342773438	1130.468139648438	-1322.534545898438	-101.3038558959961	1069.4365234375	-1272.628295898438	136.0788726806641	1163.846557617188	-1274.91748046875	132.3833312988282	1164.553955078125	-1340.010498046875	218.2833251953126	1183.580444335938	-1278.65478515625	-350.5325622558594	1198.548217773438	-897.040710449219	-216.5375061035157	1136.6689453125	-810.0400390625002	-185.2835845947266	1168.795654296875	-830.2217407226565	-147.0662536621094	1127.78759765625	-805.3049926757815	-79.81003570556642	1130.260986328125	-808.629333496094	-77.33032226562501	1081.919067382813	-866.7290039062502	163.6907653808594	1140.7646484375	-861.1865844726565	155.8230743408203	1138.27392578125	-795.6475830078127	237.9404449462891	1159.045654296875	-850.6425781250002	-387.2575073242189	774.1478271484377	-1140.98193359375	-391.8605346679689	781.4257812500002	-925.0484619140627	-554.3259887695314	839.1518554687502	-1033.150146484375	-561.9486694335939	809.9974365234377	-1062.522827148438	-564.6307373046876	807.6172485351565	-1005.708435058594	-390.7969665527345	637.3475952148439	-1212.608520507813	-312.9063415527344	601.7338256835939	-1209.75537109375	-278.7542114257813	633.7162475585939	-1191.553955078125	-297.9097290039063	542.8615722656251	-1199.179077148438	-196.6587829589844	426.2749023437501	-1164.842041015625	-182.3942108154297	442.649871826172	-1052.363647460938	-207.6775360107422	300.8168945312501	-1064.51953125	-248.1956634521485	245.0630493164063	-1121.20751953125	-222.3405761718751	246.5632476806641	-1080.231689453125	-273.8849487304688	196.5382843017579	-1037.920654296875	-377.7851867675782	104.5116195678711	-1076.01953125	-348.0894775390626	121.8564071655274	-996.0169067382815	-440.852020263672	95.85766601562501	-1025.043334960938	-239.0238952636719	53.20668029785158	-1004.70703125	-233.5798034667969	49.07221603393556	-1043.810791015625	-257.7453613281251	42.7709083557129	-1093.711303710938	-310.6136169433594	588.6218261718751	-862.7420043945315	-244.4625549316407	589.8640136718751	-871.9794921875002	-229.7251129150391	618.6979370117189	-884.4026489257815	-195.5878601074219	523.9908447265626	-889.9884033203127	-148.8939971923828	489.4975585937501	-897.309997558594	-137.1228637695313	502.2858276367189	-1013.690246582031	-16.70903968811036	441.624969482422	-921.1658935546877	8.559666633605959	339.1179199218751	-892.6976318359377	36.69701766967774	373.7265930175782	-906.7497558593752	79.65895843505861	357.0350952148438	-941.7656860351565	162.3256378173828	223.6128234863282	-908.717224121094	155.4522399902344	248.3150482177735	-987.5899047851565	156.1817626953125	159.8754425048828	-947.852722167969	274.5529174804688	323.8180847167969	-985.002136230469	271.3659057617188	337.7850646972657	-940.4487915039065	274.6423950195313	308.4324645996094	-885.2087402343752	
894	4.465	-250.9705810546876	1435.676147460938	-1027.281494140625	-387.321990966797	1367.823974609375	-1129.237915039063	-378.3206787109376	1369.577758789063	-977.4002685546877	-437.9816894531251	1252.303955078125	-1046.677612304688	-526.9979858398439	954.3754882812502	-1040.604614257813	-314.7849426269532	1168.449584960938	-1053.821899414063	-368.4887084960938	1198.494506835938	-1211.56689453125	-227.1557922363282	1153.4609375	-1293.579345703125	-192.7070465087891	1170.4345703125	-1261.862060546875	-161.2065124511719	1148.392211914063	-1309.41015625	-111.195426940918	1130.377807617188	-1322.798217773438	-101.1791000366211	1068.879150390625	-1272.358154296875	136.207260131836	1163.458618164063	-1274.784790039063	132.4467010498047	1164.305908203125	-1339.923095703125	218.3283996582032	1183.359497070313	-1278.560668945313	-350.6604003906251	1198.055297851563	-897.133972167969	-216.5679168701172	1136.131591796875	-810.0635986328127	-185.3532409667969	1168.406616210938	-830.2327880859377	-147.1411285400391	1127.323364257813	-805.2754516601565	-79.90888977050783	1129.94287109375	-808.650817871094	-77.37947845458986	1081.49560546875	-866.6706542968752	163.5928039550782	1140.482055664063	-861.1758422851565	155.7993316650391	1137.999633789063	-795.5885009765627	238.0175170898438	1159.342529296875	-850.7109375000002	-387.3258666992189	773.628845214844	-1141.08837890625	-391.5636596679689	780.8397216796877	-925.1765136718752	-554.1328125000001	838.5550537109377	-1033.091674804688	-561.8272094726564	809.1730957031252	-1062.458374023438	-564.5177001953126	806.9090576171877	-1005.506652832031	-389.6256713867189	636.4364624023439	-1212.195434570313	-312.9747314453126	601.3262939453126	-1209.878051757813	-278.6745910644532	633.3640747070314	-1191.71337890625	-297.8252868652344	542.5922241210939	-1199.55126953125	-196.0993652343751	425.9358825683595	-1165.16748046875	-181.9859466552735	442.2420043945314	-1052.664916992188	-207.4422760009766	300.5677490234376	-1064.93505859375	-248.1570281982422	244.8188476562501	-1121.338500976563	-222.2087402343751	246.4481506347657	-1080.569458007813	-273.7789916992188	196.4737243652344	-1038.130249023438	-377.7500610351563	104.4607620239258	-1076.150390625	-348.0576782226563	121.8896408081055	-996.1780395507815	-440.8312377929689	95.83678436279298	-1025.070922851563	-239.0234375000001	53.28316879272462	-1004.728393554688	-233.5846405029297	49.0581398010254	-1043.833984375	-257.7545471191407	42.76227569580079	-1093.799194335938	-310.4428710937501	587.9652099609376	-862.7738037109377	-244.287094116211	589.0984497070314	-872.094421386719	-229.5850982666016	618.0816040039064	-884.3389892578127	-195.3955383300782	523.3709106445314	-889.9595947265627	-148.7009735107422	488.818817138672	-897.3276977539065	-136.88232421875	501.5923156738282	-1013.674072265625	-16.45560264587403	441.201141357422	-921.194519042969	8.855162620544435	338.7472534179688	-892.6042480468752	36.92905426025391	373.3496093750001	-906.7145996093752	79.88256072998048	356.5422668457032	-941.6613769531252	162.7034759521485	223.3504028320313	-908.6235351562502	155.8369445800782	248.0040283203126	-987.952331542969	156.6566162109375	159.2580718994141	-947.5970458984377	272.8715209960938	323.0214538574219	-982.429382324219	271.2590332031251	337.2080993652344	-940.3777465820315	274.9363403320313	308.2445068359376	-885.1368408203127	
895	4.47	-251.2446441650391	1435.171142578125	-1027.508911132813	-387.7000427246095	1366.370971679688	-1129.647094726563	-378.3925476074219	1368.9755859375	-977.4697875976565	-438.0523376464845	1251.7998046875	-1046.739135742188	-526.9059448242189	953.6384887695315	-1040.568115234375	-314.8765869140626	1167.849365234375	-1053.83935546875	-368.5601196289063	1197.930419921875	-1211.674560546875	-227.0899658203126	1152.873657226563	-1293.544799804688	-192.7062683105469	1169.948120117188	-1261.7763671875	-161.2551574707032	1147.797485351563	-1309.262084960938	-111.1224822998047	1129.934204101563	-1322.663452148438	-101.0090026855469	1068.423095703125	-1272.182373046875	136.1821746826172	1163.030029296875	-1274.744995117188	132.5479583740235	1164.021240234375	-1339.843872070313	218.3455505371094	1183.131469726563	-1278.410522460938	-350.7785339355469	1197.45361328125	-897.1594848632815	-216.5670623779297	1135.673706054688	-810.2166137695315	-185.5316619873047	1167.893432617188	-830.2373046875002	-147.1871337890625	1126.92138671875	-805.288757324219	-79.92285156250001	1129.527709960938	-808.5543212890627	-77.4350051879883	1081.1103515625	-866.630798339844	163.6104125976563	1140.157470703125	-861.1458129882815	155.7476043701172	1137.686279296875	-795.5749511718752	237.8858795166016	1158.9287109375	-850.7036743164065	-386.916717529297	773.1737060546877	-1141.368896484375	-390.5720825195314	779.7222900390627	-925.5748291015627	-553.9762573242189	837.9404296875002	-1033.027221679688	-561.7570800781251	808.4261474609377	-1062.283813476563	-564.4645996093751	806.1785278320315	-1005.414367675781	-390.1389160156251	636.2918090820314	-1212.48583984375	-312.9879150390626	600.9657592773439	-1210.1728515625	-278.6226806640626	632.9412231445314	-1191.886962890625	-297.5961303710938	542.2091064453126	-1199.953125	-195.9058837890626	425.6032104492189	-1165.550048828125	-181.4225311279297	441.8129272460939	-1053.149780273438	-207.2602996826172	300.3375549316407	-1065.326904296875	-248.0990753173829	244.6070709228516	-1121.494140625	-222.0710906982422	246.159896850586	-1081.034545898438	-273.6141357421876	196.383529663086	-1038.33984375	-377.7913818359376	104.4038619995117	-1076.304931640625	-348.0417480468751	121.9382476806641	-996.2917480468752	-440.8495178222657	95.85953521728517	-1025.056274414063	-239.0054016113282	53.41268157958986	-1004.798400878906	-233.5601043701172	49.05178451538087	-1043.875732421875	-257.7814025878907	42.73730468750001	-1093.796142578125	-310.2914733886719	587.4236450195314	-862.7438964843752	-244.0562591552735	588.6566772460939	-872.0378417968752	-229.4222106933594	617.4483642578126	-884.3679809570315	-195.1275329589844	522.8652343750001	-889.9366455078127	-148.4710998535157	488.2180786132814	-897.2526855468752	-136.5635070800782	500.7120361328126	-1013.551452636719	-16.17853927612305	440.6579895019532	-921.1245727539065	9.084480285644533	338.2911071777344	-892.5337524414065	37.20589065551759	372.9110107421876	-906.7131347656252	80.2439422607422	356.0325927734376	-941.518493652344	163.0432434082032	222.9644012451172	-908.601257324219	156.3077697753907	247.8665771484376	-988.026306152344	157.0401763916016	158.9508361816407	-947.4062500000002	273.2117004394532	322.7448425292969	-982.4337158203127	271.5605163574219	337.1061401367188	-940.169860839844	275.2815551757813	308.0286254882813	-885.173767089844	
